<svg width="19" height="19" viewBox="0 0 19 19" fill="none" xmlns="http://www.w3.org/2000/svg">
<path d="M0.627462 4.12965C0.627462 3.35705 0.628037 2.81861 0.665079 2.40078C0.701383 1.99128 0.768913 1.75819 0.867556 1.58265C1.03582 1.28321 1.28321 1.03582 1.58265 0.867556C1.75819 0.768913 1.99128 0.701383 2.40078 0.665079C2.81861 0.628037 3.35705 0.627462 4.12965 0.627462C4.90225 0.627462 5.44069 0.628037 5.85852 0.665079C6.26802 0.701383 6.50111 0.768913 6.67664 0.867556C6.97608 1.03583 7.22347 1.28321 7.39174 1.58265C7.49039 1.75819 7.55792 1.99128 7.59422 2.40078C7.63126 2.81861 7.63184 3.35705 7.63184 4.12965C7.63184 4.90225 7.63126 5.44069 7.59422 5.85852C7.55792 6.26802 7.49039 6.50111 7.39174 6.67664C7.22347 6.97608 6.97608 7.22347 6.67664 7.39174C6.50111 7.49039 6.26802 7.55792 5.85852 7.59422C5.44069 7.63126 4.90225 7.63184 4.12965 7.63184C3.35705 7.63184 2.81861 7.63126 2.40078 7.59422C1.99128 7.55792 1.75819 7.49039 1.58265 7.39174C1.28321 7.22347 1.03583 6.97608 0.867556 6.67664C0.768913 6.50111 0.701383 6.26802 0.665079 5.85852C0.628037 5.44069 0.627462 4.90225 0.627462 4.12965ZM11.3645 4.12965C11.3645 3.35705 11.3651 2.81861 11.4022 2.40078C11.4385 1.99128 11.506 1.75819 11.6046 1.58265C11.7729 1.28321 12.0203 1.03583 12.3197 0.867556C12.4953 0.768913 12.7284 0.701383 13.1379 0.665079C13.5557 0.628037 14.0941 0.627462 14.8667 0.627462C15.6393 0.627462 16.1778 0.628037 16.5956 0.665079C17.0051 0.701383 17.2382 0.768913 17.4137 0.867556C17.7132 1.03582 17.9606 1.28321 18.1288 1.58265C18.2275 1.75819 18.295 1.99128 18.3313 2.40078C18.3683 2.81861 18.3689 3.35705 18.3689 4.12965C18.3689 4.90225 18.3683 5.44069 18.3313 5.85852C18.295 6.26802 18.2275 6.50111 18.1288 6.67665C17.9606 6.97609 17.7132 7.22347 17.4137 7.39174C17.2382 7.49039 17.0051 7.55792 16.5956 7.59422C16.1778 7.63126 15.6393 7.63184 14.8667 7.63184C14.0941 7.63184 13.5557 7.63126 13.1379 7.59422C12.7284 7.55792 12.4953 7.49039 12.3197 7.39174C12.0203 7.22347 11.7729 6.97608 11.6046 6.67664C11.506 6.50111 11.4385 6.26802 11.4022 5.85852C11.3651 5.44069 11.3645 4.90225 11.3645 4.12965ZM0.627462 14.8667C0.627462 14.0941 0.628037 13.5557 0.665079 13.1379C0.701383 12.7284 0.768913 12.4953 0.867556 12.3197C1.03583 12.0203 1.28321 11.7729 1.58265 11.6046C1.75819 11.506 1.99128 11.4385 2.40078 11.4022C2.81861 11.3651 3.35705 11.3645 4.12965 11.3645C4.90225 11.3645 5.44069 11.3651 5.85852 11.4022C6.26802 11.4385 6.50111 11.506 6.67664 11.6046C6.97608 11.7729 7.22347 12.0203 7.39174 12.3197C7.49039 12.4953 7.55792 12.7284 7.59422 13.1379C7.63126 13.5557 7.63184 14.0941 7.63184 14.8667C7.63184 15.6393 7.63126 16.1778 7.59422 16.5956C7.55792 17.0051 7.49039 17.2382 7.39174 17.4137C7.22347 17.7132 6.97609 17.9606 6.67664 18.1288C6.50111 18.2275 6.26802 18.295 5.85852 18.3313C5.44069 18.3683 4.90225 18.3689 4.12965 18.3689C3.35705 18.3689 2.81861 18.3683 2.40078 18.3313C1.99128 18.295 1.75819 18.2275 1.58265 18.1288C1.28321 17.9606 1.03582 17.7132 0.867556 17.4137C0.768913 17.2382 0.701383 17.0051 0.665079 16.5956C0.628037 16.1778 0.627462 15.6393 0.627462 14.8667Z" stroke="#37BD6B" stroke-width="1.25492"/>
<path d="M18.369 14.8662C18.369 16.8004 16.801 18.3684 14.8668 18.3684C12.9326 18.3684 11.3646 16.8004 11.3646 14.8662C11.3646 12.932 12.9326 11.364 14.8668 11.364C16.801 11.364 18.369 12.932 18.369 14.8662Z" fill="white" stroke="#37BD6B" stroke-width="1.25492"/>
</svg>
