<svg width="48" height="48" viewBox="0 0 48 48" fill="none" xmlns="http://www.w3.org/2000/svg">
<path d="M11.5526 36.132L10.9619 40.4025C10.9343 40.5996 10.9934 40.7986 11.1243 40.9483C11.2546 41.0983 11.4438 41.1842 11.6426 41.1842H17.8919H30.1074H36.3575C36.5562 41.1842 36.7455 41.0983 36.8757 40.9483C37.0066 40.7986 37.0657 40.5996 37.0382 40.4025L36.4468 36.132C35.9293 32.3951 33.7597 29.1691 30.4941 27.2815L28.4636 26.1074C28.2333 25.9746 27.946 25.9859 27.7272 26.1377C25.22 27.8782 22.7814 27.8789 20.2729 26.1377C20.054 25.9859 19.7681 25.9746 19.5372 26.1074L17.5053 27.2815C14.2396 29.1697 12.0695 32.3955 11.5526 36.132ZM18.5793 39.8095V36.5603C18.5793 35.684 19.2921 34.9713 20.1682 34.9705C20.1686 34.9705 20.1691 34.9707 20.1695 34.9707C20.1701 34.9707 20.1708 34.9704 20.1715 34.9704H27.8286C27.8292 34.9704 27.8299 34.9707 27.8305 34.9707C27.831 34.9707 27.8314 34.9705 27.8319 34.9705C28.708 34.9713 29.4201 35.684 29.4201 36.5603V39.8095H18.5793ZM35.0855 36.3206L35.5681 39.8095H30.7948V36.5603C30.7948 35.2491 29.9339 34.1472 28.7521 33.757L30.5005 28.9273C33.0026 30.6385 34.6647 33.2834 35.0855 36.3206ZM19.8553 27.511C22.6068 29.2627 25.3919 29.2634 28.1447 27.511L29.3075 28.1834L27.3483 33.5957H20.6517L18.6919 28.1835L19.8553 27.511ZM17.4989 28.9273L19.2479 33.757C18.0656 34.147 17.2046 35.2491 17.2046 36.5603V39.8095H12.4313L12.9139 36.3206C13.3347 33.2837 14.9968 30.6388 17.4989 28.9273Z" fill="#A0A0A3"/>
<path d="M23.9997 25.9369C28.317 25.9369 29.8961 21.7803 30.2111 19.1054C30.7875 19.0698 31.2268 18.9484 31.5372 18.6648C31.797 18.4272 31.9346 18.105 31.9346 17.7335C31.9346 17.3464 31.7727 16.9384 31.4903 16.5336C31.1647 10.5 28.4102 6.88386 24.105 6.82473C24.0684 6.82283 24.0336 6.8158 23.9963 6.8158C23.955 6.8158 23.9165 6.82336 23.8761 6.82571C19.5824 6.895 16.8345 10.5083 16.5097 16.5326C16.2269 16.9377 16.0648 17.3461 16.0648 17.7335C16.0648 18.105 16.2024 18.4272 16.4621 18.6648C16.7729 18.9494 17.2103 19.0722 17.7885 19.1075C18.1041 21.7825 19.6835 25.9369 23.9997 25.9369ZM23.9997 24.5621C20.3252 24.5621 19.4005 20.6857 19.1751 19.0764C19.5264 19.0509 19.9026 19.0183 20.3212 18.9806C21.4187 18.882 22.6625 18.7702 23.9997 18.7702C25.3368 18.7702 26.5807 18.882 27.6782 18.9806C28.095 19.0182 28.4759 19.0522 28.8259 19.0776C28.6039 20.6867 27.6863 24.5621 23.9997 24.5621ZM29.9756 15.136C29.1909 14.6194 28.2146 14.1719 27.1251 13.8636C26.9716 11.5298 26.6583 9.7947 26.1663 8.63445C28.739 9.75784 29.6578 12.8446 29.9756 15.136ZM23.9244 8.19939C23.9506 8.1991 23.9733 8.19387 23.9997 8.19387C24.0229 8.19387 24.0428 8.19851 24.0658 8.19875C24.3947 8.26223 25.3676 8.86257 25.7256 13.5604C25.1647 13.4738 24.5877 13.4223 23.9997 13.4223C23.4118 13.4223 22.835 13.4738 22.2743 13.5603C22.6299 8.8739 23.5944 8.26536 23.9244 8.19939ZM21.8305 8.63562C21.3399 9.79583 21.0276 11.5306 20.8749 13.8634C19.7854 14.1717 18.8092 14.6191 18.0245 15.1356C18.3422 12.8449 19.2603 9.75994 21.8305 8.63562ZM17.6764 17.2384C17.6857 17.2284 17.6985 17.2241 17.7073 17.2135C17.734 17.1817 17.7516 17.1505 17.7702 17.1192C18.5952 16.1803 20.9013 14.797 23.9997 14.797C27.1046 14.797 29.4131 16.1858 30.2336 17.1248C30.2515 17.1543 30.2675 17.1836 30.2927 17.2135C30.3003 17.2226 30.3117 17.2256 30.3196 17.2342C30.451 17.4031 30.5355 17.5559 30.5552 17.6757C30.1678 17.8251 28.8636 17.707 27.801 17.6116C26.6753 17.5103 25.3986 17.3955 23.9997 17.3955C22.6008 17.3955 21.324 17.5103 20.1984 17.6116C19.1371 17.7076 17.8322 17.8254 17.4442 17.6757C17.4637 17.5569 17.547 17.4056 17.6764 17.2384Z" fill="#A0A0A3"/>
</svg>
