<svg width="48" height="48" viewBox="0 0 48 48" fill="none" xmlns="http://www.w3.org/2000/svg">
<path d="M38.8193 6.8158H9.17996C7.87639 6.8158 6.8158 7.87639 6.8158 9.18064V38.82C6.8158 40.1236 7.87639 41.1841 9.17996 41.1841H38.8193C40.1236 41.1841 41.1842 40.1236 41.1842 38.82V9.18064C41.1842 7.87639 40.1236 6.8158 38.8193 6.8158ZM39.8094 38.82C39.8094 39.3657 39.365 39.8094 38.8193 39.8094H9.17996C8.63425 39.8094 8.19055 39.3657 8.19055 38.82V9.18064C8.19055 8.63489 8.63425 8.19055 9.17996 8.19055H38.8193C39.365 8.19055 39.8094 8.63489 39.8094 9.18064V38.82Z" fill="#A0A0A3"/>
<path d="M35.0838 10.4246C33.7097 10.4246 32.5921 11.5422 32.5921 12.9163C32.5921 14.2903 33.7097 15.408 35.0838 15.408C36.4579 15.408 37.5755 14.2903 37.5755 12.9163C37.5755 11.5422 36.4579 10.4246 35.0838 10.4246ZM35.0838 14.0332C34.4676 14.0332 33.9668 13.5325 33.9668 12.9163C33.9668 12.3 34.4676 11.7993 35.0838 11.7993C35.7 11.7993 36.2007 12.3 36.2007 12.9163C36.2007 13.5325 35.7 14.0332 35.0838 14.0332Z" fill="#A0A0A3"/>
<path d="M12.9162 15.408C14.2903 15.408 15.4079 14.2903 15.4079 12.9163C15.4079 11.5422 14.2903 10.4246 12.9162 10.4246C11.5421 10.4246 10.4245 11.5422 10.4245 12.9163C10.4245 14.2903 11.5421 15.408 12.9162 15.408ZM12.9162 11.7993C13.5324 11.7993 14.0332 12.3 14.0332 12.9163C14.0332 13.5325 13.5324 14.0332 12.9162 14.0332C12.3 14.0332 11.7993 13.5325 11.7993 12.9163C11.7993 12.3 12.3 11.7993 12.9162 11.7993Z" fill="#A0A0A3"/>
<path d="M12.9162 32.592C11.5421 32.592 10.4245 33.7097 10.4245 35.0837C10.4245 36.4578 11.5421 37.5754 12.9162 37.5754C14.2903 37.5754 15.4079 36.4578 15.4079 35.0837C15.4079 33.7097 14.2903 32.592 12.9162 32.592ZM12.9162 36.2007C12.3 36.2007 11.7993 35.7 11.7993 35.0837C11.7993 34.4675 12.3 33.9667 12.9162 33.9667C13.5324 33.9667 14.0332 34.4675 14.0332 35.0837C14.0332 35.7 13.5324 36.2007 12.9162 36.2007Z" fill="#A0A0A3"/>
<path d="M35.0838 32.5928C33.7097 32.5928 32.5921 33.7104 32.5921 35.0845C32.5921 36.4585 33.7097 37.5762 35.0838 37.5762C36.4579 37.5762 37.5755 36.4585 37.5755 35.0845C37.5755 33.7104 36.4579 32.5928 35.0838 32.5928ZM35.0838 36.2015C34.4676 36.2015 33.9668 35.7007 33.9668 35.0845C33.9668 34.4683 34.4676 33.9675 35.0838 33.9675C35.7 33.9675 36.2007 34.4683 36.2007 35.0845C36.2007 35.7007 35.7 36.2015 35.0838 36.2015Z" fill="#A0A0A3"/>
<path d="M32.9902 30.8919C33.0328 30.8521 33.0627 30.8027 33.094 30.7532C34.5007 28.8637 35.3443 26.5313 35.3443 24C35.3443 21.4668 34.4996 19.1331 33.091 17.243C33.0604 17.1955 33.0319 17.1477 32.9909 17.1092C32.3845 16.32 31.6788 15.6144 30.8894 15.0081C30.853 14.9694 30.8075 14.9429 30.763 14.9135C28.8718 13.5022 26.5358 12.6558 24 12.6558C21.4687 12.6558 19.1363 13.4993 17.2468 14.906C17.1973 14.9373 17.148 14.9672 17.1081 15.0098C16.3197 15.6155 15.6148 16.3205 15.009 17.1088C14.9667 17.1484 14.9371 17.1975 14.9059 17.2466C13.4988 19.136 12.6551 21.4685 12.6551 24C12.6551 26.5297 13.4977 28.8607 14.9029 30.7496C14.9348 30.8008 14.9659 30.8514 15.0097 30.8923C15.6152 31.6802 16.3198 32.3848 17.1077 32.9903C17.1487 33.0343 17.1995 33.0654 17.2507 33.0974C19.1396 34.5024 21.4705 35.3449 24 35.3449C26.534 35.3449 28.8686 34.4994 30.759 33.0899C30.8052 33.0598 30.8522 33.0321 30.8898 32.992C31.6787 32.386 32.3841 31.6808 32.9902 30.8919ZM15.8359 18.295H16.9196V21.182H14.4419C14.7504 20.138 15.225 19.1665 15.8359 18.295ZM32.1634 29.7057H31.0791V26.8186H33.5574C33.2489 27.8626 32.7743 28.8342 32.1634 29.7057ZM31.0791 25.4438V22.5568H33.8528C33.9218 23.0293 33.9695 23.5086 33.9695 24C33.9695 24.4916 33.9218 24.9711 33.8527 25.4438H31.0791ZM22.5561 22.5568H25.4432V25.4438H22.5561V22.5568ZM21.1814 25.4438H18.2943V22.5568H21.1814V25.4438ZM26.8179 22.5568H29.7044V25.4438H26.8179V22.5568ZM31.0791 21.182V18.295H32.1635C32.7744 19.1665 33.249 20.138 33.5574 21.182H31.0791ZM29.7044 16.9203H26.8179V14.4425C27.8617 14.7509 28.8331 15.2253 29.7044 15.836V16.9203ZM29.7044 18.295V21.182H26.8179V18.295H29.7044ZM25.4432 21.182H22.5561V18.295H25.4432V21.182ZM21.1814 21.182H18.2943V18.295H21.1814V21.182ZM18.2943 16.9203V15.8366C19.1658 15.2257 20.1374 14.7511 21.1814 14.4426V16.9203H18.2943ZM16.9196 22.5568V25.4438H14.1466C14.0776 24.9711 14.0298 24.4916 14.0298 24C14.0298 23.5086 14.0776 23.0293 14.1465 22.5568H16.9196ZM16.9196 26.8186V29.7057H15.836C15.2251 28.8342 14.7505 27.8626 14.442 26.8186H16.9196ZM18.2943 31.0804H21.1814V33.5581C20.1374 33.2496 19.1658 32.775 18.2943 32.164V31.0804ZM18.2943 29.7057V26.8186H21.1814V29.7057H18.2943ZM22.5561 26.8186H25.4432V29.7057H22.5561V26.8186ZM26.8179 26.8186H29.7044V29.7057H26.8179V26.8186ZM29.7044 31.0804V32.1646C28.8331 32.7753 27.8617 33.2498 26.8179 33.5581V31.0804H29.7044ZM25.4432 14.1472V16.9203H22.5561V14.1472C23.0289 14.0782 23.5084 14.0305 24 14.0305C24.4914 14.0305 24.9707 14.0782 25.4432 14.1472ZM22.5561 33.8534V31.0804H25.4432V33.8535C24.9707 33.9225 24.4914 33.9702 24 33.9702C23.5084 33.9702 23.0289 33.9225 22.5561 33.8534Z" fill="#A0A0A3"/>
</svg>
