<svg width="27" height="18" viewBox="0 0 27 18" fill="none" xmlns="http://www.w3.org/2000/svg">
<path d="M25.2926 8.95997L17.0663 9L15.733 11.6667H11.0663L9.73299 9H1.49354M25.0637 8.49617L20.6601 1.89058C20.4774 1.61663 20.23 1.39201 19.9397 1.23665C19.6494 1.08129 19.3252 1.00001 18.996 1H7.80336C7.47411 1 7.14996 1.08129 6.85966 1.23665C6.56937 1.39201 6.32192 1.61663 6.13928 1.89058L1.73557 8.49617C1.51654 8.82469 1.39965 9.2107 1.39966 9.60554V15C1.39966 16.1046 2.29507 17 3.39966 17H23.3997C24.5042 17 25.3997 16.1046 25.3997 15V9.60554C25.3997 9.2107 25.2828 8.82469 25.0637 8.49617Z" stroke="#A0A0A3" stroke-width="1.5" stroke-linejoin="round"/>
</svg>
